<svg width="190" height="43" viewBox="0 0 190 43" fill="none" xmlns="http://www.w3.org/2000/svg">
<g style="mix-blend-mode:darken">
<path d="M0.4 42V1.2H5.98L25.6 34.38V1.2H30.4V42H24.82L5.2 8.82V42H0.4ZM46.0412 42.84C42.6012 42.84 39.7812 41.54 37.5812 38.94C35.3812 36.34 34.2812 32.6 34.2812 27.72C34.2812 22.8 35.6612 18.82 38.4212 15.78C41.2212 12.7 44.6812 11.16 48.8012 11.16C52.9613 11.16 56.7013 12.32 60.0213 14.64V36L60.6213 42L56.6612 42.3L55.6413 36.9C53.4013 40.86 50.2013 42.84 46.0412 42.84ZM38.8412 27.6C38.8412 31.2 39.6012 33.96 41.1212 35.88C42.6412 37.8 44.5812 38.76 46.9412 38.76C49.3413 38.76 51.3613 37.58 53.0013 35.22C54.6413 32.82 55.4613 29.44 55.4613 25.08V16.74C53.4613 15.74 51.3213 15.24 49.0412 15.24C46.0812 15.24 43.6412 16.4 41.7213 18.72C39.8012 21 38.8412 23.96 38.8412 27.6ZM66.7684 5.46C66.2884 4.9 66.0484 4.2 66.0484 3.36C66.0484 2.52 66.2884 1.84 66.7684 1.32C67.2484 0.759998 67.9484 0.479998 68.8684 0.479998C69.7884 0.479998 70.5084 0.759998 71.0284 1.32C71.5484 1.88 71.8084 2.56 71.8084 3.36C71.8084 4.16 71.5484 4.84 71.0284 5.4C70.5084 5.96 69.7884 6.24 68.8684 6.24C67.9484 6.24 67.2484 5.98 66.7684 5.46ZM66.6484 42V12H71.2084V42H66.6484ZM76.9 -2.86102e-06H81.46V35.4C81.46 37.6 82.36 38.7 84.16 38.7C85.32 38.7 86.46 38.3 87.58 37.5L89.38 40.74C87.18 42.14 85.1 42.84 83.14 42.84C81.18 42.84 79.64 42.3 78.52 41.22C77.44 40.14 76.9 38.2 76.9 35.4V-2.86102e-06ZM120.742 39.12C117.862 41.6 114.502 42.84 110.662 42.84C106.862 42.84 103.702 41.56 101.182 39C98.7017 36.44 97.4617 32.72 97.4617 27.84C97.4617 22.92 98.7017 18.92 101.182 15.84C103.702 12.72 107.182 11.16 111.622 11.16C114.382 11.16 116.942 11.88 119.302 13.32L118.162 16.98C116.042 15.82 113.902 15.24 111.742 15.24C108.782 15.24 106.422 16.36 104.662 18.6C102.902 20.84 102.022 23.84 102.022 27.6C102.022 31.32 102.822 34.12 104.422 36C106.062 37.84 108.142 38.76 110.662 38.76C113.862 38.76 116.622 37.8 118.942 35.88L120.742 39.12ZM121.839 -2.86102e-06H126.399V35.4C126.399 37.6 127.299 38.7 129.099 38.7C130.259 38.7 131.399 38.3 132.519 37.5L134.319 40.74C132.119 42.14 130.039 42.84 128.079 42.84C126.119 42.84 124.579 42.3 123.459 41.22C122.379 40.14 121.839 38.2 121.839 35.4V-2.86102e-06ZM133.401 12H137.961V30.24C137.961 35.92 139.981 38.76 144.021 38.76C146.341 38.76 148.441 37.58 150.321 35.22C152.241 32.82 153.261 29.52 153.381 25.32V12H157.941V36L158.541 42L154.581 42.3L153.381 36.12C152.181 38.28 150.661 39.94 148.821 41.1C146.981 42.26 145.121 42.84 143.241 42.84C136.681 42.84 133.401 38.64 133.401 30.24V12ZM167.921 -2.86102e-06V16.92C170.121 13.08 173.361 11.16 177.641 11.16C181.001 11.16 183.741 12.46 185.861 15.06C188.021 17.66 189.101 21.42 189.101 26.34C189.101 31.22 187.701 35.2 184.901 38.28C182.141 41.32 178.761 42.84 174.761 42.84C170.761 42.84 167.861 41.72 166.061 39.48C164.261 37.2 163.361 34.12 163.361 30.24V-2.86102e-06H167.921ZM184.541 26.4C184.541 22.76 183.861 20 182.501 18.12C181.141 16.2 179.221 15.24 176.741 15.24C174.301 15.24 172.241 16.34 170.561 18.54C168.881 20.74 168.001 24.12 167.921 28.68V30.24C167.921 32.76 168.441 34.82 169.481 36.42C170.561 37.98 172.181 38.76 174.341 38.76C177.301 38.76 179.741 37.62 181.661 35.34C183.581 33.02 184.541 30.04 184.541 26.4Z" fill="#447C0B"/>
</g>
</svg>
