<svg width="102" height="24" viewBox="0 0 102 24" fill="none" xmlns="http://www.w3.org/2000/svg">
<g style="mix-blend-mode:darken">
<path d="M0.88 23V1.24H3.856L14.32 18.936V1.24H16.88V23H13.904L3.44 5.304V23H0.88ZM25.222 23.448C23.3873 23.448 21.8833 22.7547 20.71 21.368C19.5367 19.9813 18.95 17.9867 18.95 15.384C18.95 12.76 19.686 10.6373 21.158 9.016C22.6513 7.37333 24.4967 6.552 26.694 6.552C28.9127 6.552 30.9073 7.17067 32.678 8.408V19.8L32.998 23L30.886 23.16L30.342 20.28C29.1473 22.392 27.4407 23.448 25.222 23.448ZM21.382 15.32C21.382 17.24 21.7873 18.712 22.598 19.736C23.4087 20.76 24.4433 21.272 25.702 21.272C26.982 21.272 28.0593 20.6427 28.934 19.384C29.8087 18.104 30.246 16.3013 30.246 13.976V9.528C29.1793 8.99467 28.038 8.728 26.822 8.728C25.2433 8.728 23.942 9.34667 22.918 10.584C21.894 11.8 21.382 13.3787 21.382 15.32ZM36.2765 3.512C36.0205 3.21333 35.8925 2.84 35.8925 2.392C35.8925 1.944 36.0205 1.58133 36.2765 1.304C36.5325 1.00533 36.9058 0.855999 37.3965 0.855999C37.8872 0.855999 38.2712 1.00533 38.5485 1.304C38.8258 1.60267 38.9645 1.96533 38.9645 2.392C38.9645 2.81867 38.8258 3.18133 38.5485 3.48C38.2712 3.77867 37.8872 3.928 37.3965 3.928C36.9058 3.928 36.5325 3.78933 36.2765 3.512ZM36.2125 23V7H38.6445V23H36.2125ZM41.68 0.599998H44.112V19.48C44.112 20.6533 44.592 21.24 45.552 21.24C46.1707 21.24 46.7787 21.0267 47.376 20.6L48.336 22.328C47.1627 23.0747 46.0533 23.448 45.008 23.448C43.9627 23.448 43.1413 23.16 42.544 22.584C41.968 22.008 41.68 20.9733 41.68 19.48V0.599998ZM65.0623 21.464C63.5263 22.7867 61.7343 23.448 59.6862 23.448C57.6596 23.448 55.9742 22.7653 54.6302 21.4C53.3076 20.0347 52.6462 18.0507 52.6462 15.448C52.6462 12.824 53.3076 10.6907 54.6302 9.048C55.9742 7.384 57.8302 6.552 60.1982 6.552C61.6702 6.552 63.0356 6.936 64.2942 7.704L63.6862 9.656C62.5556 9.03733 61.4142 8.728 60.2622 8.728C58.6836 8.728 57.4249 9.32533 56.4862 10.52C55.5476 11.7147 55.0782 13.3147 55.0782 15.32C55.0782 17.304 55.5049 18.7973 56.3582 19.8C57.2329 20.7813 58.3422 21.272 59.6862 21.272C61.3929 21.272 62.8649 20.76 64.1023 19.736L65.0623 21.464ZM65.6475 0.599998H68.0795V19.48C68.0795 20.6533 68.5595 21.24 69.5195 21.24C70.1382 21.24 70.7462 21.0267 71.3435 20.6L72.3035 22.328C71.1302 23.0747 70.0208 23.448 68.9755 23.448C67.9302 23.448 67.1088 23.16 66.5115 22.584C65.9355 22.008 65.6475 20.9733 65.6475 19.48V0.599998ZM71.8137 7H74.2457V16.728C74.2457 19.7573 75.3231 21.272 77.4777 21.272C78.7151 21.272 79.8351 20.6427 80.8378 19.384C81.8618 18.104 82.4058 16.344 82.4698 14.104V7H84.9018V19.8L85.2218 23L83.1098 23.16L82.4698 19.864C81.8298 21.016 81.0191 21.9013 80.0378 22.52C79.0564 23.1387 78.0644 23.448 77.0617 23.448C73.5631 23.448 71.8137 21.208 71.8137 16.728V7ZM90.2245 0.599998V9.624C91.3978 7.576 93.1258 6.552 95.4085 6.552C97.2005 6.552 98.6618 7.24533 99.7925 8.632C100.945 10.0187 101.521 12.024 101.521 14.648C101.521 17.2507 100.774 19.3733 99.2805 21.016C97.8085 22.6373 96.0058 23.448 93.8725 23.448C91.7392 23.448 90.1925 22.8507 89.2325 21.656C88.2725 20.44 87.7925 18.7973 87.7925 16.728V0.599998H90.2245ZM99.0885 14.68C99.0885 12.7387 98.7258 11.2667 98.0005 10.264C97.2752 9.24 96.2512 8.728 94.9285 8.728C93.6272 8.728 92.5285 9.31467 91.6325 10.488C90.7365 11.6613 90.2672 13.464 90.2245 15.896V16.728C90.2245 18.072 90.5018 19.1707 91.0565 20.024C91.6325 20.856 92.4965 21.272 93.6485 21.272C95.2272 21.272 96.5285 20.664 97.5525 19.448C98.5765 18.2107 99.0885 16.6213 99.0885 14.68Z" fill="#160C0C"/>
</g>
</svg>
